<?xml version="1.0" standalone="no"?>
<!DOCTYPE svg PUBLIC "-//W3C//DTD SVG 20010904//EN"
 "http://www.w3.org/TR/2001/REC-SVG-20010904/DTD/svg10.dtd">
<svg version="1.0" xmlns="http://www.w3.org/2000/svg"
 width="225.000000pt" height="225.000000pt" viewBox="0 0 225.000000 225.000000"
 preserveAspectRatio="xMidYMid meet">
<metadata>
Created by potrace 1.16, written by Peter Selinger 2001-2019
</metadata>
<g transform="translate(0.000000,225.000000) scale(0.100000,-0.100000)"
fill="#000000" stroke="none">
<path d="M1084 2235 c-3 -8 -14 -17 -25 -20 -10 -4 -19 -15 -19 -26 0 -10 -7
-19 -15 -19 -9 0 -18 -7 -21 -15 -3 -8 -14 -17 -25 -20 -10 -4 -19 -15 -19
-26 0 -10 -7 -19 -15 -19 -9 0 -18 -7 -21 -15 -3 -8 -14 -17 -25 -20 -10 -4
-19 -15 -19 -26 0 -10 -7 -19 -15 -19 -9 0 -18 -7 -21 -15 -3 -8 -14 -17 -25
-20 -10 -4 -19 -15 -19 -26 0 -11 -7 -19 -17 -19 -10 0 -25 -5 -33 -10 -11 -7
-5 -8 20 -6 19 2 27 1 18 -1 -10 -2 -18 -9 -18 -15 0 -6 -11 -8 -25 -6 -21 4
-25 1 -25 -18 0 -15 -6 -24 -15 -24 -9 0 -18 -7 -21 -15 -4 -8 -11 -15 -16
-15 -6 0 -8 7 -4 15 3 8 2 15 -3 15 -16 0 -20 -14 -8 -28 10 -13 9 -15 -10
-10 -16 4 -20 2 -16 -8 3 -8 -1 -14 -10 -14 -8 0 -17 -7 -21 -15 -3 -8 -10
-15 -16 -15 -6 0 -8 6 -4 13 5 8 2 8 -9 -2 -9 -7 -17 -18 -17 -23 0 -5 -6 -16
-12 -23 -32 -36 -37 -44 -30 -49 5 -3 22 12 38 33 29 39 112 99 173 124 21 9
28 16 20 19 -8 3 0 5 16 6 17 1 71 4 122 8 77 5 102 3 161 -15 138 -42 252
-145 309 -281 25 -59 27 -77 27 -185 0 -195 -23 -236 -293 -508 -102 -104
-179 -188 -171 -187 8 2 41 2 73 1 l57 -1 0 -104 c0 -99 -1 -104 -22 -110 -38
-10 -415 -7 -442 4 -52 19 -81 102 -55 153 6 12 145 157 308 322 323 326 321
323 321 436 0 69 -34 142 -87 190 -51 46 -100 62 -173 57 -192 -14 -285 -235
-164 -388 19 -24 37 -54 40 -67 18 -69 -35 -143 -102 -143 -72 0 -129 54 -187
177 -30 65 -32 74 -32 188 0 110 2 125 27 177 15 32 23 60 17 63 -5 4 -9 0 -9
-8 0 -8 -6 -27 -14 -42 l-14 -26 -17 23 c-11 15 -15 17 -12 6 4 -12 1 -18 -8
-18 -8 0 -12 -6 -9 -14 3 -8 12 -12 20 -9 8 3 14 0 14 -7 0 -6 -5 -8 -12 -4
-7 5 -9 2 -5 -9 3 -9 -1 -18 -10 -21 -10 -4 -14 -2 -10 8 5 12 1 13 -16 7 -12
-5 -25 -19 -28 -32 -4 -13 -7 -19 -8 -12 -2 20 -31 3 -31 -18 0 -10 -7 -19
-15 -19 -9 0 -18 -7 -21 -15 -3 -8 -14 -17 -25 -20 -10 -4 -19 -15 -19 -26 0
-10 -7 -19 -15 -19 -9 0 -18 -7 -21 -15 -3 -8 -14 -17 -25 -20 -10 -4 -19 -15
-19 -26 0 -10 -7 -19 -15 -19 -9 0 -18 -7 -21 -15 -3 -8 -14 -17 -25 -20 -10
-4 -19 -15 -19 -26 0 -10 -7 -19 -15 -19 -9 0 -18 -7 -21 -15 -3 -8 -14 -17
-25 -20 -18 -6 -19 -25 -19 -591 l0 -584 1125 0 1125 0 0 1125 0 1125 -580 0
c-500 0 -581 -2 -586 -15z m631 -1045 l30 -30 3 -288 c4 -322 0 -349 -52 -381
-59 -37 -131 -19 -161 39 -23 44 -22 597 1 641 33 64 124 74 179 19z m-400
-504 c44 -19 69 -66 62 -119 -15 -111 -164 -131 -213 -29 -28 59 7 135 69 154
35 10 45 9 82 -6z"/>
</g>
</svg>
