<?xml version="1.0" standalone="no"?>
<!DOCTYPE svg PUBLIC "-//W3C//DTD SVG 20010904//EN"
 "http://www.w3.org/TR/2001/REC-SVG-20010904/DTD/svg10.dtd">
<svg version="1.0" xmlns="http://www.w3.org/2000/svg"
 width="115.000000pt" height="150.000000pt" viewBox="0 0 115.000000 150.000000"
 preserveAspectRatio="xMidYMid meet">
<metadata>
Created by potrace 1.16, written by Peter Selinger 2001-2019
</metadata>
<g transform="translate(0.000000,150.000000) scale(0.100000,-0.100000)"
fill="#000000" stroke="none">
<path d="M259 1379 c-8 -4 -22 -10 -32 -13 -9 -3 -22 -17 -27 -31 -5 -14 -14
-25 -20 -25 -5 0 -10 -9 -10 -19 0 -10 -7 -21 -15 -25 -8 -3 -15 -12 -15 -21
0 -8 -5 -15 -11 -15 -5 0 -8 -4 -4 -9 3 -5 -6 -26 -20 -47 -27 -40 -27 -25 -4
-244 6 -63 7 -115 1 -130 -10 -28 -5 -60 9 -60 5 0 9 -16 9 -35 0 -19 4 -35 9
-35 12 0 21 105 21 256 0 146 8 177 51 199 24 13 31 12 67 -5 31 -15 62 -20
126 -20 92 0 109 8 151 73 9 15 24 27 31 27 27 0 17 18 -39 69 -50 47 -60 30
-11 -20 24 -26 31 -37 17 -30 -12 6 -32 24 -45 41 -12 17 -33 43 -46 59 l-22
29 50 -25 c27 -13 55 -23 61 -21 6 2 -2 10 -18 18 -15 8 -38 25 -50 37 -30 29
-171 44 -214 22z"/>
<path d="M223 804 c-24 -10 -13 -21 30 -30 l42 -8 -40 -4 c-61 -6 -88 -35 -40
-44 14 -3 25 -1 25 5 0 6 8 3 18 -5 12 -11 31 -14 65 -11 29 3 54 0 62 -7 20
-16 35 -4 35 29 0 24 -7 30 -52 48 -56 23 -125 35 -145 27z"/>
<path d="M355 500 c-3 -5 -1 -18 5 -29 14 -28 13 -31 -16 -31 -14 0 -34 -5
-45 -10 -21 -12 -26 -1 -7 18 10 10 5 12 -25 10 -20 -1 -37 -7 -37 -14 0 -6
-11 -15 -25 -18 -27 -7 -30 -22 -16 -73 11 -40 10 -41 -101 -84 l-88 -33 0
-118 0 -118 106 0 107 0 -6 40 c-3 23 -1 38 4 34 5 -3 9 0 9 7 0 8 5 7 18 -3
9 -8 25 -18 35 -21 9 -4 17 -15 17 -26 0 -10 7 -22 16 -25 29 -11 87 -6 104 9
9 8 34 17 56 19 60 6 97 17 118 35 30 26 73 84 81 110 7 24 6 24 -33 -8 -40
-31 -42 -32 -114 -25 -57 5 -80 12 -101 30 -15 13 -27 24 -27 26 0 2 22 2 48
0 41 -3 51 0 75 24 15 14 27 30 27 33 0 4 -21 13 -46 20 -58 17 -46 31 35 38
33 3 66 12 72 19 10 12 -3 14 -72 14 -85 0 -127 11 -94 24 9 3 25 6 35 6 23 0
45 26 30 35 -6 3 -8 10 -5 15 3 4 -12 16 -33 25 -20 10 -48 26 -61 36 -27 21
-37 23 -46 9z"/>
<path d="M860 232 c0 -17 -8 -39 -19 -49 -22 -22 -81 -151 -81 -179 0 -10 77
-3 88 8 9 9 15 9 24 0 20 -20 47 -15 41 8 -4 14 -11 19 -23 15 -15 -5 -17 6
-19 107 -1 62 -4 114 -6 117 -3 2 -5 -10 -5 -27z"/>
</g>
</svg>
